<?xml version="1.0" standalone="no"?>
<!DOCTYPE svg PUBLIC "-//W3C//DTD SVG 20010904//EN"
 "http://www.w3.org/TR/2001/REC-SVG-20010904/DTD/svg10.dtd">
<svg version="1.0" xmlns="http://www.w3.org/2000/svg"
 width="200.000000pt" height="200.000000pt" viewBox="0 0 200.000000 200.000000"
 preserveAspectRatio="xMidYMid meet">
<metadata>
Created by potrace 1.14, written by Peter Selinger 2001-2017
</metadata>
<g transform="translate(0.000000,200.000000) scale(0.100000,-0.100000)"
fill="#000000" stroke="none">
<path d="M805 1969 c-402 -83 -701 -382 -784 -784 -39 -191 -13 -430 67 -605
36 -80 128 -217 190 -283 49 -51 160 -137 227 -176 65 -38 195 -88 274 -105
105 -24 368 -21 465 4 177 47 330 134 457 260 195 195 289 414 294 690 3 136
-7 207 -42 320 -74 239 -249 452 -477 580 -187 104 -454 144 -671 99z"/>
</g>
</svg>
